<svg width="160" height="41" viewBox="0 0 160 41" fill="none" xmlns="http://www.w3.org/2000/svg" xmlns:xlink="http://www.w3.org/1999/xlink">
<path d="M26.5632 13.8857L13.2831 0.787598H0V13.8857L13.2831 26.9838V13.8857H26.5632Z" fill="#B40000"/>
<path d="M0 13.8857V40.0791H13.2831V26.9838L0 13.8857Z" fill="#0E0E10"/>
<path d="M26.5634 0.787598V13.8857V26.9838H13.2832L26.5634 40.079H39.8464V26.9838V0.787598H26.5634Z" fill="#0E0E10"/>


<path d="M42.9844 9.59685H55.2261V40.0794H66.4958V9.59685H78.6799V0.785156H42.9844V9.59685Z" fill="#0E0E10"/>
<path d="M115.55 23.0134C116.972 20.8802 117.684 18.2975 117.684 15.2655C117.684 10.7743 116.126 7.23883 113.017 4.65619C109.905 2.07355 105.425 0.782227 99.581 0.782227H81.8184V40.0765H93.0909V29.635H99.1858L106.411 40.0765H118.48L109.876 27.7151C112.31 26.5859 114.208 25.0215 115.547 23.0106L115.55 23.0134ZM104.591 11.0872C105.768 12.1168 106.357 13.5106 106.357 15.2683C106.357 17.0261 105.768 18.5251 104.591 19.5348C103.415 20.5445 101.649 21.0508 99.2983 21.0508H93.0938V9.54273H99.2983C101.652 9.54273 103.415 10.0575 104.591 11.0872Z" fill="#0E0E10"/>
<path d="M148.583 30.3915C148.202 30.5622 147.821 30.7158 147.443 30.8438C145.848 31.387 144.218 31.6573 142.548 31.6573C140.878 31.6573 139.349 31.387 137.965 30.8438C136.58 30.3005 135.392 29.5354 134.405 28.5427C133.419 27.5501 132.649 26.3611 132.101 24.9788C131.55 23.5936 131.276 22.0804 131.276 20.4307C131.276 18.781 131.55 17.2138 132.101 15.8286C132.652 14.4463 133.419 13.2574 134.405 12.2647C135.392 11.272 136.586 10.5154 137.991 9.99209C139.396 9.46873 140.95 9.20706 142.658 9.20706C144.593 9.20706 146.347 9.5626 147.925 10.2737C149.5 10.9848 150.971 12.0884 152.338 13.5845L159.512 7.18475C157.576 4.86378 155.127 3.08609 152.168 1.85165C149.209 0.617218 145.868 0 142.147 0C138.882 0 135.905 0.49491 133.208 1.48758C130.514 2.48024 128.169 3.88249 126.179 5.69717C124.186 7.51184 122.64 9.67352 121.541 12.1794C120.439 14.6881 119.891 17.4385 119.891 20.4307C119.891 23.423 120.442 26.1763 121.541 28.6821C122.64 31.1908 124.177 33.3525 126.153 35.1643C128.126 36.979 130.442 38.3841 133.099 39.3739C135.755 40.3666 138.677 40.8615 141.865 40.8615C144.749 40.8615 147.68 40.432 150.659 39.5701C153.639 38.7083 156.284 37.4739 158.6 35.864V19.5831H148.58V30.3858L148.583 30.3915Z" fill="#0E0E10"/>

</svg>
